<?xml version="1.0" standalone="no"?><!DOCTYPE svg PUBLIC "-//W3C//DTD SVG 1.1//EN" "http://www.w3.org/Graphics/SVG/1.1/DTD/svg11.dtd"><svg t="1620305268064" class="icon" viewBox="0 0 1024 1024" version="1.1" xmlns="http://www.w3.org/2000/svg" p-id="1192" xmlns:xlink="http://www.w3.org/1999/xlink" width="200" height="200"><defs><style type="text/css"></style></defs><path d="M804.88 637.098c0-131.732-123.151-161.963-175.726-174.868l-19.598-4.971c-148.025-38.004-178.834-45.914-178.834-98.365 0-57.875 55.042-78.411 102.174-78.411 81.524 0 124.357 31.118 130.713 95.077h120.044c-3.747-134.927-113.979-173.731-190.004-184.412v-58.211c0-10.651-8.643-19.295-19.286-19.295h-48.257c-10.669 0-19.295 8.643-19.295 19.295v56.012c-99.476 10.191-195.722 67.891-195.722 181.399 0 114.155 94.058 148.56 182.231 171.843 13.533 3.611 27.073 6.934 40.358 10.185 77.946 19.101 151.579 37.152 151.579 100.57 0 79.294-99.109 85.457-129.475 85.457-88.695 0-142.767-43.279-146.042-116.204h-119.753c0.833 55.073 19.040 100.962 54.172 136.498 37.805 38.246 95.661 62.976 162.658 70.476v54.868c0 10.656 8.637 19.295 19.3 19.295h48.25c10.651 0 19.295-8.643 19.295-19.295v-54.432c131.415-12.601 211.219-83.954 211.219-192.51z" p-id="1193"></path></svg>