<?xml version="1.0" standalone="no"?><!DOCTYPE svg PUBLIC "-//W3C//DTD SVG 1.1//EN" "http://www.w3.org/Graphics/SVG/1.1/DTD/svg11.dtd"><svg t="1620657396003" class="icon" viewBox="0 0 1024 1024" version="1.1" xmlns="http://www.w3.org/2000/svg" p-id="2895" xmlns:xlink="http://www.w3.org/1999/xlink" width="200" height="200"><defs><style type="text/css"></style></defs><path d="M8.4 638.5h220.2l-29.4-12.6-91.4-39.1v-84.2H8.4l11.7 11.8 58.4 59.1-57.8 52.4z" fill="#0b988f" p-id="2896"></path><path d="M107.8 443.2v143.6h808.4V443.2z" fill="#0b988f" p-id="2897"></path><path d="M945.5 573.5l58.4-59.1 11.7-11.8h-99.4v84.2l-91.4 39.1-29.4 12.6h220.2l-12.3-12.6z" fill="#0b988f" p-id="2898"></path><path d="M883.1 588.3h-88.6V640l120.9-51.7zM106.9 588.3L227.7 640v-51.7h-88.6z" fill="#0b988f" p-id="2899"></path><path d="M511.3 431.8c-83.7 0-151.9-68.1-151.9-151.9S427.5 128 511.3 128c83.7 0 151.9 68.1 151.9 151.9s-68.1 151.9-151.9 151.9z m0-296.3c-79.7 0-144.5 64.8-144.5 144.5s64.8 144.5 144.5 144.5S655.8 359.6 655.8 280 591 135.5 511.3 135.5z" fill="#0b988f" p-id="2900"></path><path d="M511.3 418.1c-76.1 0-138.1-61.9-138.1-138.1 0-76.1 61.9-138.1 138.1-138.1 76.1 0 138.1 61.9 138.1 138.1 0 76.1-61.9 138.1-138.1 138.1z m0-268.8c-72.1 0-130.7 58.6-130.7 130.7s58.6 130.7 130.7 130.7S642 352 642 280c0-72.1-58.6-130.7-130.7-130.7z" fill="#0b988f" p-id="2901"></path><path d="M363.1 252.8L187 180.4V55.8L408.2 175l-45.1 77.8zM197 173.7l161.8 66.5 35.6-61.2L197 72.6v101.1z" fill="#0b988f" p-id="2902"></path><path d="M190.008 132.59l4.098-9.122 188.552 84.706-4.098 9.122z" fill="#0b988f" p-id="2903"></path><path d="M661.1 252.8L616 175.1 837.2 55.8v124.5l-176.1 72.5zM629.8 179l35.6 61.2 161.8-66.5V72.6L629.8 179z" fill="#0b988f" p-id="2904"></path><path d="M641.519 208.074L830.07 123.37l4.098 9.122-188.551 84.705z" fill="#0b988f" p-id="2905"></path><path d="M708.776 129.676l9.497-3.131 13.933 42.261-9.497 3.131z" fill="#0b988f" p-id="2906"></path><path d="M308 336.5h409.9v30.8H308z" fill="#0b988f" p-id="2907"></path></svg>