<?xml version="1.0" standalone="no"?><!DOCTYPE svg PUBLIC "-//W3C//DTD SVG 1.1//EN" "http://www.w3.org/Graphics/SVG/1.1/DTD/svg11.dtd"><svg t="1620180595965" class="icon" viewBox="0 0 1024 1024" version="1.1" xmlns="http://www.w3.org/2000/svg" p-id="5806" xmlns:xlink="http://www.w3.org/1999/xlink" width="200" height="200"><defs><style type="text/css"></style></defs><path d="M8.4 638.5h220.2l-29.4-12.6-91.4-39.1v-84.2H8.4l11.7 11.8 58.4 59.1-57.8 52.4z" fill="#F7B249" p-id="5807"></path><path d="M107.8 443.2v143.6h808.4V443.2z" fill="#FACD89" p-id="5808"></path><path d="M945.5 573.5l58.4-59.1 11.7-11.8h-99.4v84.2l-91.4 39.1-29.4 12.6h220.2l-12.3-12.6z" fill="#F7B249" p-id="5809"></path><path d="M883.1 588.3h-88.6V640l120.9-51.7zM106.9 588.3L227.7 640v-51.7h-88.6z" fill="#595757" p-id="5810"></path><path d="M515.5 53.8L570.8 224h179L605 329.2l55.3 170.2-144.8-105.2-144.8 105.2L426 329.2 281.2 224h179z" fill="#FACD89" p-id="5811"></path><path d="M515.5 428.4c-83.7 0-151.9-68.1-151.9-151.9s68.1-151.9 151.9-151.9c83.7 0 151.9 68.1 151.9 151.9s-68.1 151.9-151.9 151.9z m0-296.3c-79.7 0-144.5 64.8-144.5 144.5s64.8 144.5 144.5 144.5S660 356.2 660 276.6s-64.8-144.5-144.5-144.5z" fill="#FACD89" p-id="5812"></path><path d="M515.5 414.7c-76.1 0-138.1-61.9-138.1-138.1 0-76.1 61.9-138.1 138.1-138.1 76.1 0 138.1 61.9 138.1 138.1 0 76.1-61.9 138.1-138.1 138.1z m0-268.8c-72.1 0-130.7 58.6-130.7 130.7s58.6 130.7 130.7 130.7 130.7-58.6 130.7-130.7-58.6-130.7-130.7-130.7z" fill="#FACD89" p-id="5813"></path></svg>