<?xml version="1.0" standalone="no"?><!DOCTYPE svg PUBLIC "-//W3C//DTD SVG 1.1//EN" "http://www.w3.org/Graphics/SVG/1.1/DTD/svg11.dtd"><svg t="1620657456623" class="icon" viewBox="0 0 1024 1024" version="1.1" xmlns="http://www.w3.org/2000/svg" p-id="3379" xmlns:xlink="http://www.w3.org/1999/xlink" width="200" height="200"><defs><style type="text/css"></style></defs><path d="M8.5 611.3h220.1l-29.4-12.6-91.4-39.1v-84.2H8.5l11.7 11.9 58.3 59-57.7 52.4z" fill="#0b988f" p-id="3380"></path><path d="M107.8 416v143.6h808.5V416z" fill="#0b988f" p-id="3381"></path><path d="M945.5 546.3l58.4-59 11.6-11.9h-99.2v84.2l-91.5 39.1-29.4 12.6h220.1l-12.2-12.6z" fill="#0b988f" p-id="3382"></path><path d="M883.2 561.1h-88.7v51.7l120.9-51.7zM107 561.1l120.8 51.7v-51.7h-88.6z" fill="#0b988f" p-id="3383"></path><path d="M566.1 802.9l-0.6-57.4c-14.6 2.7-29.5 4-44.5 4-19.5 0-38.9-2.3-57.8-6.9l2 55.8-100.7-71.6-116.1 42.4 33.3-106.1-13.8 14.8-10.6-62.4-48.2-61.5 32.9-0.3-106.8-49.8 98.6-51.5-20.2 0.7 36.7-51.6 9.4-77.6 23.5 23.1-40.4-110.7 106.1 33.3-14.9-13.8 62.4-10.6L458 197l0.3 32.9L508.1 123l51.5 98.6-0.7-20.2 51.6 36.7 77.6 9.4L665 271l110.7-40.4-33.2 106.2 13.8-14.8 10.6 62.4 48.2 61.5-32.9 0.3L888.9 496l-98.6 51.5 20.2-0.7-36.7 51.6-9.4 77.6-23.5-23.1 40.4 110.7-118-37-97.2 76.3z m8.1-68.1l0.5 50.2 86.9-68.1 105.4 33-37.9-103.7 7.2-10.1 21.6 21.1 7.6-62.1 27.6-38.9-23 0.8 1.2-9.5 97.8-51.1L769 449.8l-2.1-12.3 30.2-0.3-38.6-49.1-8-47-15.7 16.8-5.9-7.5 33-105.4-103.7 37.9-10.1-7.2 21.1-21.6-62.1-7.6-38.9-27.6 0.8 23-9.5-1.2-51-97.8L462 243l-12.3 2.1-0.3-30.2-49.3 38.6-47 8 16.9 15.7-7.5 5.8-105.4-33L295 353.7l-7.2 10.1-21.6-21.1-7.6 62.1-27.6 38.9 23-0.8-1.2 9.4-97.8 51.1L255.1 550l2.1 12.3-30.2 0.3 38.6 49.3 8 47 15.7-16.9 5.9 7.5-33 105.4L365.8 717l90 64-1.8-49.8 5.8 1.5c19.9 5.3 40.5 8.1 61.3 8.1 16.1 0 32.2-1.6 47.9-4.9l5.2-1.1z" fill="#0b988f" p-id="3384"></path><path d="M515.3 726.4c-63.3 0-122.8-24.6-167.5-69.4-44.7-44.7-69.4-104.2-69.4-167.5S303 366.7 347.8 322s104.2-69.4 167.5-69.4S638 277.2 682.8 322c44.7 44.7 69.4 104.2 69.4 167.5S727.6 612.3 682.8 657c-44.8 44.8-104.2 69.4-167.5 69.4z m0-456.1c-120.9 0-219.3 98.4-219.3 219.3s98.4 219.3 219.3 219.3 219.3-98.4 219.3-219.3-98.4-219.3-219.3-219.3z" fill="#0b988f" p-id="3385"></path></svg>