<?xml version="1.0" standalone="no"?><!DOCTYPE svg PUBLIC "-//W3C//DTD SVG 1.1//EN" "http://www.w3.org/Graphics/SVG/1.1/DTD/svg11.dtd"><svg t="1620180644733" class="icon" viewBox="0 0 1024 1024" version="1.1" xmlns="http://www.w3.org/2000/svg" p-id="6003" xmlns:xlink="http://www.w3.org/1999/xlink" width="200" height="200"><defs><style type="text/css"></style></defs><path d="M5.5 611.8h220.1l-29.4-12.6-91.4-39.1v-84.2H5.5l11.7 11.8 58.3 59.1-57.7 52.4z" fill="#ffffff" p-id="6004"></path><path d="M104.8 416.5v143.6h808.5V416.5z" fill="#ffffff" p-id="6005"></path><path d="M942.6 546.8l58.3-59.1 11.7-11.8h-99.3v84.2l-91.4 39.1-29.4 12.6h220.1l-12.3-12.6z" fill="#ffffff" p-id="6006"></path><path d="M881 560.1h-88.5v51.7l120.8-51.7zM104.8 560.1l120.8 51.7v-51.7H137z" fill="#ffffff" p-id="6007"></path><path d="M509 767.8c-83.5 0-162-32.5-221-91.5s-91.5-137.5-91.5-221 32.5-162 91.5-221 137.5-91.5 221-91.5 162 32.5 221 91.5 91.5 137.5 91.5 221-32.5 162-91.5 221-137.5 91.5-221 91.5z m0-601.7c-159.4 0-289.1 129.7-289.1 289.1 0 159.4 129.7 289.1 289.1 289.1s289.1-129.7 289.1-289.1c0.1-159.4-129.6-289.1-289.1-289.1z" fill="#ffffff" p-id="6008"></path><path d="M509 729.2c-73.2 0-142-28.5-193.7-80.2-51.7-51.7-80.2-120.5-80.2-193.7s28.5-142 80.2-193.7c51.7-51.7 120.5-80.2 193.7-80.2 73.2 0 142 28.5 193.7 80.2 51.7 51.7 80.2 120.5 80.2 193.7s-28.5 142-80.2 193.7C651 700.7 582.2 729.2 509 729.2z m0-527.3c-139.7 0-253.4 113.7-253.4 253.4S369.3 708.7 509 708.7 762.5 595 762.5 455.3c0-139.8-113.7-253.4-253.5-253.4z" fill="#ffffff" p-id="6009"></path><path d="M509 587.7c-35.4 0-68.6-13.8-93.6-38.8-25-25-38.8-58.2-38.8-93.6s13.8-68.6 38.8-93.6c25-25 58.2-38.8 93.6-38.8 35.4 0 68.6 13.8 93.6 38.8 25 25 38.8 58.2 38.8 93.6s-13.8 68.6-38.8 93.6c-25 25-58.2 38.8-93.6 38.8z m0-254.9c-67.5 0-122.5 54.9-122.5 122.5 0 67.5 54.9 122.5 122.5 122.5s122.5-54.9 122.5-122.5c0-67.5-54.9-122.5-122.5-122.5zM400.2 109.3l-7.5 42.8 40.8-14.8-33.3-28-7.5 42.8 40.8-14.8zM303.4 156.2l5.3 43.1 34.7-26.1-40-17 5.3 43.1 34.7-26.1zM224.6 229.3l17.6 39.7 25.6-35.1-43.2-4.6 17.6 39.7 25.6-35.1zM170.5 322.3l28.5 32.8 14.2-41.1-42.7 8.3 28.5 32.8 14.2-41.1zM153.2 534.3l42 11.2-11.3-41.9-30.7 30.7 42 11.2-11.3-41.9zM194.3 645l43.4-1.5-23-36.8-20.4 38.3 43.4-1.5-23-36.8zM257.4 719.7l41.1-14.1-32.8-28.5-8.3 42.6 41.1-14.1-32.8-28.5zM345.4 781.6l35.1-25.5-39.7-17.6 4.6 43.1 35.1-25.5-39.7-17.6zM447.5 815.2l26.2-34.7-43.1-5.3 16.9 40 26.2-34.7-43.1-5.3zM555 817.4l14.9-40.9-42.8 7.6 27.9 33.3 14.9-40.9-42.8 7.6zM658.5 788l2.3-43.4-38.7 19.8 36.4 23.6 2.3-43.4-38.7 19.8zM748.8 729.7l-10.5-42.1-31.2 30.1 41.7 12-10.5-42.1-31.2 30.1zM818.2 647.5l-22.4-37.2-21 38 43.4-0.8-22.4-37.2-21 38zM860.5 548.7l-32.3-29.1-9 42.5 41.3-13.4-32.3-29.1-9 42.5zM872 441.8l-39.3-18.4 3.8 43.3 35.5-24.9-39.3-18.4 3.8 43.3zM851.8 336.1l-43-6 16.3 40.3 26.7-34.3-43-6 16.3 40.3zM801.6 241l-42.9 6.8 27.4 33.8 15.5-40.6-42.9 6.8 27.4 33.8z" fill="#ffffff" p-id="6010"></path><path d="M725.8 164.8l-39 19 36 24.3 3-43.3-39 19 36 24.3z" fill="#ffffff" p-id="6011"></path><path d="M631 114l-31.8 29.6 41.6 12.7L631 114l-31.8 29.6 41.6 12.7z" fill="#ffffff" p-id="6012"></path><path d="M525.5 93.2l-21.7 37.6h43.4l-21.7-37.6-21.7 37.6h43.4z" fill="#ffffff" p-id="6013"></path></svg>