<?xml version="1.0" standalone="no"?><!DOCTYPE svg PUBLIC "-//W3C//DTD SVG 1.1//EN" "http://www.w3.org/Graphics/SVG/1.1/DTD/svg11.dtd"><svg t="1620657433193" class="icon" viewBox="0 0 1024 1024" version="1.1" xmlns="http://www.w3.org/2000/svg" p-id="3101" xmlns:xlink="http://www.w3.org/1999/xlink" width="200" height="200"><defs><style type="text/css"></style></defs><path d="M8.4 635.1h220.2l-29.4-12.6-91.4-39.1v-84.2H8.4L20.1 511l58.4 59.1-57.8 52.4z" fill="#0b988f" p-id="3102"></path><path d="M107.8 439.8v143.6h808.4V439.8z" fill="#0b988f" p-id="3103"></path><path d="M945.5 570.1l58.4-59.1 11.7-11.8h-99.4v84.2l-91.4 39.1-29.4 12.6h220.2l-12.3-12.6z" fill="#0b988f" p-id="3104"></path><path d="M883.1 584.9h-88.6v51.7l120.9-51.7zM106.9 584.9l120.8 51.7v-51.7h-88.6z" fill="#0b988f" p-id="3105"></path><path d="M393.9 673.2l28.2-168.8L299 385.5l169.2-25.4 75-153.8 76.4 153.1 169.5 23.8-122 120 29.7 168.5L545 592.9l-151.1 80.3z m-73.4-280.8l112.3 108.5-25.7 154L545 581.6l138.5 72-27.1-153.8 111.3-109.5-154.6-21.8L543.4 229l-68.5 140.3-154.4 23.1z" fill="#0b988f" p-id="3106"></path><path d="M365.5 717.4L399 516.7 252.6 375.3l201.3-30.2 89.3-182.9 90.9 182.1 201.6 28.4-145.2 142.6 35.3 200.4-180.6-93.9-179.7 95.6z m-91.4-335.3l135.6 131-31 186 166.5-88.5 167.3 87-32.7-185.7 134.4-132.2-186.7-26.3-84.2-168.7-82.7 169.4-186.5 28z" fill="#0b988f" p-id="3107"></path></svg>