<?xml version="1.0" standalone="no"?><!DOCTYPE svg PUBLIC "-//W3C//DTD SVG 1.1//EN" "http://www.w3.org/Graphics/SVG/1.1/DTD/svg11.dtd"><svg t="1620657527996" class="icon" viewBox="0 0 1024 1024" version="1.1" xmlns="http://www.w3.org/2000/svg" p-id="990" xmlns:xlink="http://www.w3.org/1999/xlink" width="200" height="200"><defs><style type="text/css"></style></defs><path d="M8.4 638.5h220.2l-29.4-12.6-91.4-39.1v-84.2H8.4l11.7 11.8 58.4 59.1-57.8 52.4z" fill="#0b988f" p-id="991"></path><path d="M107.8 443.2v143.6h808.4V443.2z" fill="#0b988f" p-id="992"></path><path d="M945.5 573.5l58.4-59.1 11.7-11.8h-99.4v84.2l-91.4 39.1-29.4 12.6h220.2l-12.3-12.6z" fill="#0b988f" p-id="993"></path><path d="M883.1 588.3h-88.6V640l120.9-51.7zM106.9 588.3L227.7 640v-51.7h-88.6z" fill="#0b988f" p-id="994"></path><path d="M295.5 287.5H155.1c-13.1 0-23.7-10.7-23.7-23.7S142 240 155.1 240h140.3c13.1 0 23.7 10.7 23.7 23.7s-10.5 23.8-23.6 23.8zM155.1 250c-7.6 0-13.7 6.2-13.7 13.7s6.2 13.7 13.7 13.7h140.3c7.6 0 13.7-6.2 13.7-13.7S303 250 295.5 250H155.1z" fill="#0b988f" p-id="995"></path><path d="M303.1 323.5H170.2c-13.1 0-23.7-10.7-23.7-23.7 0-13.1 10.7-23.7 23.7-23.7h132.9c13.1 0 23.7 10.7 23.7 23.7 0 13.1-10.6 23.7-23.7 23.7zM170.2 286c-7.6 0-13.7 6.2-13.7 13.7 0 7.6 6.2 13.7 13.7 13.7h132.9c7.6 0 13.7-6.2 13.7-13.7 0-7.6-6.2-13.7-13.7-13.7H170.2z" fill="#0b988f" p-id="996"></path><path d="M320.8 361H187.9c-13.1 0-23.7-10.7-23.7-23.7s10.7-23.7 23.7-23.7h132.9c13.1 0 23.7 10.7 23.7 23.7S333.9 361 320.8 361z m-132.9-37.5c-7.6 0-13.7 6.2-13.7 13.7s6.2 13.7 13.7 13.7h132.9c7.6 0 13.7-6.2 13.7-13.7s-6.2-13.7-13.7-13.7H187.9z" fill="#0b988f" p-id="997"></path><path d="M512 434.7c-113.5 0-205.8-92.3-205.8-205.8S398.5 23 512 23c113.5 0 205.8 92.3 205.8 205.8S625.5 434.7 512 434.7zM512 33c-108 0-195.8 87.8-195.8 195.8S404 424.7 512 424.7s195.8-87.8 195.8-195.8S620 33 512 33z" fill="#0b988f" p-id="998"></path><path d="M512 416c-103.2 0-187.1-84-187.1-187.1 0-103.2 84-187.1 187.1-187.1 103.2 0 187.1 84 187.1 187.1S615.2 416 512 416z m0-364.3c-97.7 0-177.1 79.5-177.1 177.1 0 97.7 79.5 177.1 177.1 177.1 97.7 0 177.1-79.5 177.1-177.1S609.7 51.7 512 51.7z" fill="#0b988f" p-id="999"></path><path d="M868.9 287.5H728.5c-13.1 0-23.7-10.7-23.7-23.7s10.7-23.7 23.7-23.7h140.3c13.1 0 23.7 10.7 23.7 23.7s-10.5 23.7-23.6 23.7zM728.5 250c-7.6 0-13.7 6.2-13.7 13.7s6.2 13.7 13.7 13.7h140.3c7.6 0 13.7-6.2 13.7-13.7s-6.2-13.7-13.7-13.7H728.5z" fill="#0b988f" p-id="1000"></path><path d="M853.8 323.5H720.9c-13.1 0-23.7-10.7-23.7-23.7 0-13.1 10.7-23.7 23.7-23.7h132.9c13.1 0 23.7 10.7 23.7 23.7 0.1 13.1-10.6 23.7-23.7 23.7zM720.9 286c-7.6 0-13.7 6.2-13.7 13.7 0 7.6 6.2 13.7 13.7 13.7h132.9c7.6 0 13.7-6.2 13.7-13.7 0-7.6-6.2-13.7-13.7-13.7H720.9z" fill="#0b988f" p-id="1001"></path><path d="M836.1 361H703.2c-13.1 0-23.7-10.7-23.7-23.7s10.7-23.7 23.7-23.7h132.9c13.1 0 23.7 10.7 23.7 23.7S849.2 361 836.1 361z m-132.9-37.5c-7.6 0-13.7 6.2-13.7 13.7s6.2 13.7 13.7 13.7h132.9c7.6 0 13.7-6.2 13.7-13.7s-6.2-13.7-13.7-13.7H703.2z" fill="#0b988f" p-id="1002"></path><path d="M597.9 347.1L512 284.7l-85.9 62.4 32.8-101-85.9-62.4h106.2l32.8-101 32.8 101H651l-85.9 62.4 32.8 101zM512 272.3l66.9 48.6-25.5-78.6 66.9-48.6h-82.7L512 115.1l-25.5 78.6h-82.7l66.9 48.6-25.5 78.6 66.8-48.6z" fill="#0b988f" p-id="1003"></path></svg>