<?xml version="1.0" standalone="no"?><!DOCTYPE svg PUBLIC "-//W3C//DTD SVG 1.1//EN" "http://www.w3.org/Graphics/SVG/1.1/DTD/svg11.dtd"><svg t="1620657480621" class="icon" viewBox="0 0 1024 1024" version="1.1" xmlns="http://www.w3.org/2000/svg" p-id="4489" xmlns:xlink="http://www.w3.org/1999/xlink" width="200" height="200"><defs><style type="text/css"></style></defs><path d="M521.1 762.1l-74.6-129.2H290l74.6-129.2-78.2-135.5h149.2l78.2-135.5 74.6 129.2h156.5l-74.6 129.2 78.2 135.5H599.3l-78.2 135.5zM307.4 622.9h144.9l68.8 119.2 72.5-125.5h137.6l-72.5-125.5 68.8-119.2H582.6l-68.8-119.2-72.5 125.5H303.7l72.5 125.5-68.8 119.2z" fill="#0b988f" p-id="4490"></path><path d="M521.5 794.6l-83.7-145H262.2l83.7-145-87.8-152.1h167.4l87.8-152.1 83.7 145h175.7l-83.7 145 87.8 152.1H609.4l-87.9 152.1z m-242-155.1h164.1l77.9 135 82.1-142.1h155.9l-82.1-142.1 77.9-135h-164l-77.9-135-82.1 142.1H275.4l82.1 142.1-78 135z" fill="#0b988f" p-id="4491"></path><path d="M8.4 635.1h220.2l-29.4-12.6-91.4-39.1v-84.2H8.4L20.1 511l58.4 59.1-57.8 52.4z" fill="#0b988f" p-id="4492"></path><path d="M107.8 439.8v143.6h808.4V439.8z" fill="#0b988f" p-id="4493"></path><path d="M945.5 570.1l58.4-59.1 11.7-11.8h-99.4v84.2l-91.4 39.1-29.4 12.6h220.2l-12.3-12.6z" fill="#0b988f" p-id="4494"></path><path d="M883.1 584.9h-88.6v51.7l120.9-51.7zM106.9 584.9l120.8 51.7v-51.7h-88.6z" fill="#0b988f" p-id="4495"></path></svg>