<?xml version="1.0" standalone="no"?><!DOCTYPE svg PUBLIC "-//W3C//DTD SVG 1.1//EN" "http://www.w3.org/Graphics/SVG/1.1/DTD/svg11.dtd"><svg t="1620180541911" class="icon" viewBox="0 0 1024 1024" version="1.1" xmlns="http://www.w3.org/2000/svg" p-id="5607" xmlns:xlink="http://www.w3.org/1999/xlink" width="200" height="200"><defs><style type="text/css"></style></defs><path d="M8.4 638.5h220.2l-29.4-12.6-91.4-39.1v-84.2H8.4l11.7 11.8 58.4 59.1-57.8 52.4z" fill="#ffffff" p-id="5608"></path><path d="M107.8 443.2v143.6h808.4V443.2z" fill="#ffffff" p-id="5609"></path><path d="M945.5 573.5l58.4-59.1 11.7-11.8h-99.4v84.2l-91.4 39.1-29.4 12.6h220.2l-12.3-12.6z" fill="#ffffff" p-id="5610"></path><path d="M883.1 588.3h-88.6V640l120.9-51.7zM106.9 588.3L227.7 640v-51.7h-88.6z" fill="#ffffff" p-id="5611"></path><path d="M524.1 448.2L310.5 295.8l78.9-250.2 262.4-2.3L735 292.1 524.1 448.2zM324.7 291.1L524 433.2l196.8-145.6-77.7-232.1-244.8 2.1-73.6 233.5z" fill="#ffffff" p-id="5612"></path><path d="M388.2 351.5l-76.9-58L507.8 49.7l145.5-1-265.1 302.8z m-59.6-60.1l57.9 43.7 240-274-112.9 0.7-185 229.6z" fill="#ffffff" p-id="5613"></path><path d="M524.1 448.2l-62.7-43.7 231.4-238.3L735 292.1 524.1 448.2z m-44-45.5l43.8 30.6 196.8-145.6-33-98.7-207.6 213.7z" fill="#ffffff" p-id="5614"></path><path d="M470.8 403.6l219.5-226 37.6 112.3L524 440.7z" fill="#ffffff" p-id="5615"></path><path d="M510.7 55.8h136.7l-260 287.5-67.4-50.9z" fill="#ffffff" p-id="5616"></path></svg>